<svg width="15" height="15" viewBox="0 0 15 15" fill="none" xmlns="http://www.w3.org/2000/svg">
<path d="M8.31671 7.08583C8.37138 7.14006 8.41478 7.20458 8.44439 7.27566C8.47401 7.34675 8.48926 7.42299 8.48926 7.5C8.48926 7.577 8.47401 7.65325 8.44439 7.72433C8.41478 7.79542 8.37138 7.85994 8.31671 7.91416L5.63921 10.5858C5.58453 10.6401 5.54114 10.7046 5.51152 10.7757C5.48191 10.8467 5.46666 10.923 5.46666 11C5.46666 11.077 5.48191 11.1532 5.51152 11.2243C5.54114 11.2954 5.58453 11.3599 5.63921 11.4142C5.7485 11.5228 5.89635 11.5838 6.05046 11.5838C6.20457 11.5838 6.35241 11.5228 6.46171 11.4142L9.13921 8.73666C9.46693 8.40854 9.651 7.96375 9.651 7.5C9.651 7.03625 9.46693 6.59146 9.13921 6.26333L6.46171 3.58583C6.35306 3.47806 6.20641 3.41731 6.05338 3.41666C5.9766 3.41622 5.9005 3.43094 5.82943 3.45996C5.75836 3.48899 5.69372 3.53177 5.63921 3.58583C5.58453 3.64006 5.54114 3.70458 5.51152 3.77566C5.48191 3.84675 5.46666 3.92299 5.46666 4C5.46666 4.07701 5.48191 4.15325 5.51152 4.22433C5.54114 4.29542 5.58453 4.35994 5.63921 4.41416L8.31671 7.08583Z" fill="white"/>
</svg>
